# xmcd
#
# Track frame offsets: 
#        150
#        26279
#        48574
#        69743
#        93725
#        108081
#        135937
#        152499
#        178966
#        203713
#
# Disc length: 2911 seconds
#
# Revision: 5
# Processed by: cddbd v1.5.2PL0 Copyright (c) Steve Scherf et al.
# Submitted via: ExactAudioCopyFreeDBPlugin 1.0
#
DISCID=800b5d0a
DTITLE=Erik Truffaz - Arkhangelsk
DYEAR=2007
DGENRE=Jazz
TTITLE0=Miss Kaba
TTITLE1=Red Cloud
TTITLE2=Trippin' The Lovelight Fantastic
TTITLE3=Snake Charmer Man
TTITLE4=Nobody Puts The Baby In The Corner
TTITLE5=Les Nuits De Monsieur Naj
TTITLE6=Arkhangelsk
TTITLE7=L'Un Dans L'Autre
TTITLE8=Akiko
TTITLE9=Entre Le Ciel Et L'Eau
EXTD=YEAR: 2007
EXTT0=
EXTT1=
EXTT2=
EXTT3=
EXTT4=
EXTT5=
EXTT6=
EXTT7=
EXTT8=
EXTT9=
PLAYORDER=
